<?xml version="1.0" standalone="no"?><!DOCTYPE svg PUBLIC "-//W3C//DTD SVG 1.1//EN" "http://www.w3.org/Graphics/SVG/1.1/DTD/svg11.dtd"><svg t="1751855264428" class="icon" viewBox="0 0 1024 1024" version="1.1" xmlns="http://www.w3.org/2000/svg" p-id="1306" xmlns:xlink="http://www.w3.org/1999/xlink" width="32" height="32"><path d="M734.3 482.3V375.6c0-15.6-5.1-30.5-14.2-41.6L539.8 113.8c-9.3-11.4-22.1-17.8-35.4-17.8H237.8c-23.6 0-49.4 20-49.4 54.8v722.4c0 34.7 25.8 54.8 49.4 54.8h384v-59.4H238.1V155.4h248.1v238.5h198.5v88.4h49.6zM535.8 334.5V193.8L651 334.5H535.8z" p-id="1307"></path><path d="M386 619v-47.6h-99.2V619h29.7v142.6h-29.7v47.5H386v-47.5h-29.8V619zM511 619v-47.5h-59.9c-21.7 0-39.3 21.3-39.3 47.5v142.6c0 26.3 17.6 47.5 39.3 47.5H511v-47.5h-59.9V619H511zM796 571.4h-86.5v237.7H749V619h47v190.2h39.6V619c0-26.3-17.8-47.6-39.6-47.6zM634.7 572.1h-59.3c-21.8 0-39.6 21.2-39.6 47.4v142.1c0 26.2 17.7 47.4 39.6 47.4h59.3c21.8 0 39.6-21.2 39.6-47.4V619.5c0-26.1-17.7-47.4-39.6-47.4z m0 189.6h-59.3V619.5h59.3v142.2z" p-id="1308"></path></svg>