<?xml version="1.0" standalone="no"?><!DOCTYPE svg PUBLIC "-//W3C//DTD SVG 1.1//EN" "http://www.w3.org/Graphics/SVG/1.1/DTD/svg11.dtd"><svg t="1751855267646" class="icon" viewBox="0 0 1024 1024" version="1.1" xmlns="http://www.w3.org/2000/svg" p-id="1475" xmlns:xlink="http://www.w3.org/1999/xlink" width="32" height="32"><path d="M819.5 334l-216-220.1C592.3 102.4 577.1 96 561.1 96H246.7c-28.2 0-59.2 20-59.2 54.8v722.4c0 34.7 30.9 54.8 59.2 54.8h327.1v-59.4H246.9V155.4h292.4v238.5H777v88.4h59.4V375.6c0.1-15.6-6-30.5-16.9-41.6z m-220.7 0.5V193.8l138 140.6h-138z" p-id="1476"></path><path d="M717.6 537c-63.6 0-118.9 48.8-118.9 113h59.4c0-27.7 24.8-53.6 59.4-53.6 34.7 0 59.4 25.9 59.4 53.6 0 17.8-16.6 39.2-42.7 49.1l-0.1 0.1c-26.3 10.2-46.3 35.2-46.3 66v39.3h59.4v-39.3c0-3.9 2.5-8.3 8.2-10.6 39.1-14.9 81-52.9 81-104.6 0.1-64.2-55.1-113-118.8-113z" p-id="1477"></path><path d="M717.6 892.3m-35.7 0a35.7 35.7 0 1 0 71.4 0 35.7 35.7 0 1 0-71.4 0Z" p-id="1478"></path></svg>