<?xml version="1.0" standalone="no"?><!DOCTYPE svg PUBLIC "-//W3C//DTD SVG 1.1//EN" "http://www.w3.org/Graphics/SVG/1.1/DTD/svg11.dtd"><svg t="1751855258592" class="icon" viewBox="0 0 1024 1024" version="1.1" xmlns="http://www.w3.org/2000/svg" p-id="1137" xmlns:xlink="http://www.w3.org/1999/xlink" width="32" height="32"><path d="M650.7 512c76.6 0 138.7-62.1 138.7-138.7s-62.1-138.7-138.7-138.7S512 296.7 512 373.3 574.1 512 650.7 512z m0-208c38.3 0 69.3 31 69.3 69.3s-31 69.3-69.3 69.3-69.3-31-69.3-69.3c-0.1-38.3 31-69.3 69.3-69.3z" p-id="1138"></path><path d="M858.7 96H165.3C127 96 96 127 96 165.3v693.3c0 38.3 31 69.3 69.3 69.3h693.3c38.3 0 69.3-31 69.3-69.3V165.3C928 127 897 96 858.7 96zM165.3 858.7V769l208-208L671 858.7H165.3z m693.4 0H769L373.3 463l-208 208V165.3h693.3v693.4z" p-id="1139"></path></svg>